<svg width="20" height="20" viewBox="0 0 20 20" fill="none" xmlns="http://www.w3.org/2000/svg">
<path d="M14.167 1.75C14.8079 1.75 15.4228 2.00479 15.876 2.45801C16.3291 2.9112 16.584 3.52613 16.584 4.16699V16.667C16.5839 16.9442 16.5105 17.2168 16.3721 17.457C16.2337 17.6972 16.0347 17.897 15.7949 18.0361C15.5552 18.1752 15.283 18.249 15.0059 18.25C14.7286 18.2509 14.4556 18.1785 14.2148 18.041L10.4551 15.8926C10.3166 15.8135 10.1594 15.7725 10 15.7725C9.84076 15.7725 9.6842 15.8137 9.5459 15.8926L5.78613 18.041C5.54541 18.1785 5.27234 18.2509 4.99512 18.25C4.71798 18.2491 4.44579 18.1752 4.20605 18.0361C3.96623 17.897 3.76635 17.6973 3.62793 17.457C3.48954 17.2168 3.4171 16.9442 3.41699 16.667V4.16699C3.41699 3.52605 3.67179 2.91122 4.125 2.45801C4.57821 2.00479 5.19304 1.75 5.83398 1.75H14.167Z" stroke="#767676" stroke-width="1.5"/>
</svg>
