<svg width="20" height="20" viewBox="0 0 20 20" fill="none" xmlns="http://www.w3.org/2000/svg">
<g clip-path="url(#clip0_399_3034)">
<path d="M17.4997 9.99998C17.4997 5.85784 14.1418 2.49998 9.99967 2.49998C5.85754 2.49998 2.49967 5.85784 2.49967 9.99998C2.49967 12.2264 3.47051 14.2253 5.01107 15.5989C5.06539 15.0219 5.31883 14.479 5.7321 14.0657C6.20094 13.5969 6.83663 13.3333 7.49967 13.3333H12.4997C13.1627 13.3333 13.7984 13.5969 14.2673 14.0657C14.6805 14.479 14.9331 15.0219 14.9875 15.5989C16.5283 14.2253 17.4997 12.2266 17.4997 9.99998ZM7.49967 15C7.27866 15 7.06676 15.0878 6.91048 15.2441C6.7542 15.4004 6.66634 15.6123 6.66634 15.8333V16.7179C7.67072 17.2172 8.80192 17.5 9.99967 17.5C11.1974 17.5 12.3286 17.2172 13.333 16.7179V15.8333C13.333 15.6123 13.2451 15.4004 13.0889 15.2441C12.9326 15.0878 12.7207 15 12.4997 15H7.49967ZM11.6663 8.33331C11.6663 7.41284 10.9201 6.66665 9.99967 6.66665C9.0792 6.66665 8.33301 7.41284 8.33301 8.33331C8.33301 9.25379 9.0792 9.99998 9.99967 9.99998C10.9201 9.99998 11.6663 9.25379 11.6663 8.33331ZM19.1663 9.99998C19.1663 13.37 17.3461 16.3126 14.6367 17.9053C14.6042 17.9276 14.5698 17.9471 14.5342 17.9647C13.1966 18.7278 11.6499 19.1666 9.99967 19.1666C8.34924 19.1666 6.80206 18.728 5.46436 17.9647C5.42875 17.947 5.39432 17.9276 5.36182 17.9053C2.65278 16.3125 0.833008 13.3698 0.833008 9.99998C0.833008 4.93737 4.93706 0.833313 9.99967 0.833313C15.0623 0.833313 19.1663 4.93737 19.1663 9.99998ZM13.333 8.33331C13.333 10.1743 11.8406 11.6666 9.99967 11.6666C8.15873 11.6666 6.66634 10.1743 6.66634 8.33331C6.66634 6.49236 8.15873 4.99998 9.99967 4.99998C11.8406 4.99998 13.333 6.49236 13.333 8.33331Z" fill="#767676"/>
</g>
<defs>
<clipPath id="clip0_399_3034">
<rect width="20" height="20" fill="white"/>
</clipPath>
</defs>
</svg>
