<svg width="16" height="16" viewBox="0 0 16 16" fill="none" xmlns="http://www.w3.org/2000/svg">
<path d="M11.3334 2C11.687 2 12.0261 2.14048 12.2762 2.39052C12.5262 2.64057 12.6667 2.97971 12.6667 3.33333V13.3333C12.6667 13.4501 12.636 13.5648 12.5777 13.6659C12.5194 13.7671 12.4356 13.8512 12.3346 13.9098C12.2336 13.9683 12.119 13.9994 12.0023 13.9998C11.8855 14.0002 11.7707 13.9699 11.6694 13.912L8.66137 12.1933C8.45995 12.0783 8.232 12.0178 8.00004 12.0178C7.76808 12.0178 7.54013 12.0783 7.33871 12.1933L4.33071 13.912C4.22933 13.9699 4.11453 14.0002 3.99779 13.9998C3.88104 13.9994 3.76645 13.9683 3.66547 13.9098C3.56449 13.8512 3.48067 13.7671 3.42239 13.6659C3.36411 13.5648 3.33341 13.4501 3.33337 13.3333V3.33333C3.33337 2.97971 3.47385 2.64057 3.7239 2.39052C3.97395 2.14048 4.31309 2 4.66671 2H11.3334Z" fill="#F7F8F8"/>
</svg>
