<svg width="16" height="16" viewBox="0 0 16 16" fill="none" xmlns="http://www.w3.org/2000/svg">
<g clip-path="url(#clip0_478_504)">
<path d="M0.861824 0.86198C1.12217 0.60163 1.54483 0.60163 1.80518 0.86198L15.1385 14.1953C15.3987 14.4556 15.3987 14.8777 15.1385 15.138C14.8782 15.3984 14.4555 15.3984 14.1952 15.138L11.5422 12.485C10.6955 12.9143 9.7773 13.1881 8.83057 13.2891C7.71346 13.4081 6.58361 13.2857 5.51807 12.9297C4.45255 12.5737 3.47598 11.9925 2.65479 11.2259C1.8336 10.4593 1.18659 9.52493 0.758308 8.48633C0.755308 8.47905 0.752585 8.47157 0.749845 8.46419C0.638724 8.16484 0.638724 7.83516 0.749845 7.53581L0.758308 7.51367C1.29632 6.20901 2.17541 5.07981 3.29542 4.23828L0.861824 1.80469C0.601699 1.54438 0.601699 1.12229 0.861824 0.86198ZM4.24919 5.19206C3.25325 5.89586 2.47219 6.86763 2.0005 7.99935C2.35589 8.85249 2.88863 9.62047 3.5643 10.2513C4.24573 10.8875 5.05641 11.3693 5.9406 11.6647C6.82479 11.9601 7.76231 12.0623 8.6893 11.9635C9.32781 11.8955 9.95004 11.7307 10.5383 11.4811L9.35336 10.2962C8.93968 10.54 8.46496 10.6709 7.97706 10.6667C7.27787 10.6606 6.60885 10.3798 6.11443 9.88542C5.62015 9.39105 5.33995 8.72248 5.33383 8.02344C5.32959 7.53537 5.45904 7.05962 5.70297 6.64583L4.24919 5.19206ZM7.07667 2.72201C8.77403 2.51974 10.491 2.87843 11.9653 3.74349C13.3476 4.55456 14.4453 5.76914 15.1138 7.22005L15.242 7.51302L15.2505 7.53516C15.3616 7.83451 15.3616 8.16419 15.2505 8.46354C15.2478 8.47093 15.245 8.47839 15.242 8.48568C14.9742 9.13493 14.6198 9.74524 14.1893 10.3001C13.9636 10.5908 13.5452 10.6435 13.2544 10.418C12.9635 10.1923 12.9102 9.77332 13.1359 9.48242C13.4881 9.02843 13.7781 8.52965 13.9992 7.99935C13.4572 6.6979 12.5071 5.60763 11.2909 4.89388C10.0676 4.17606 8.6426 3.87839 7.23422 4.04622C6.8687 4.08967 6.5369 3.82842 6.49333 3.46289C6.44978 3.0973 6.71107 2.76557 7.07667 2.72201ZM6.71274 7.6556C6.68191 7.77079 6.66546 7.89042 6.66651 8.01172C6.66956 8.36122 6.81004 8.69552 7.05714 8.94271C7.30435 9.18992 7.63918 9.3303 7.98878 9.33333C8.1099 9.33436 8.22921 9.31787 8.34425 9.28711L6.71274 7.6556Z" fill="white"/>
</g>
<defs>
<clipPath id="clip0_478_504">
<rect width="16" height="16" fill="white"/>
</clipPath>
</defs>
</svg>
