<svg width="24" height="24" viewBox="0 0 24 24" fill="none" xmlns="http://www.w3.org/2000/svg">
<path d="M12 2C10.0222 2 8.08883 2.58673 6.44434 3.68555C4.79992 4.78434 3.51761 6.34567 2.76074 8.17285C2.00387 10.0001 1.80653 12.0114 2.19238 13.9512C2.57827 15.8909 3.53026 17.6728 4.92871 19.0713C6.32716 20.4697 8.10913 21.4217 10.0488 21.8076C11.9886 22.1935 13.9999 21.9961 15.8271 21.2393C17.6543 20.4824 19.2157 19.2001 20.3145 17.5557C21.4133 15.9112 22 13.9778 22 12C22 11.4477 21.5523 11 21 11C20.4477 11 20 11.4477 20 12C20 13.5823 19.5304 15.1287 18.6514 16.4443C17.7724 17.7599 16.5232 18.7851 15.0615 19.3906C13.5998 19.9961 11.9912 20.1553 10.4395 19.8467C8.88761 19.538 7.46159 18.776 6.34277 17.6572C5.22395 16.5384 4.462 15.1124 4.15332 13.5605C3.8447 12.0088 4.00391 10.4002 4.60938 8.93848C5.21488 7.47676 6.24014 6.22764 7.55566 5.34863C8.87072 4.46994 10.4165 4.00039 11.998 4C14.2554 4.00896 16.4219 4.88999 18.0449 6.45898L18.5859 7H16C15.4477 7 15 7.44772 15 8C15 8.55228 15.4477 9 16 9H21C21.5523 9 22 8.55228 22 8V3C22 2.44772 21.5523 2 21 2C20.4477 2 20 2.44772 20 3V5.58594L19.4473 5.0332L19.0537 4.66992C17.1076 2.96203 14.6048 2.00982 12.0039 2H12Z" fill="white"/>
</svg>
