<svg width="20" height="20" viewBox="0 0 20 20" fill="none" xmlns="http://www.w3.org/2000/svg">
<path d="M8.33366 10.8329V16.6663H11.667V10.8329H8.33366ZM18.3337 15.8329C18.3337 16.496 18.0701 17.1325 17.6012 17.6013C17.1324 18.07 16.4966 18.3329 15.8337 18.3329H4.16699C3.50405 18.3329 2.86823 18.07 2.39941 17.6013C1.93057 17.1325 1.66699 16.496 1.66699 15.8329V8.33295C1.66699 7.96953 1.74598 7.61037 1.89893 7.2807C2.05197 6.95086 2.27553 6.6585 2.55322 6.42377L8.38249 1.42702L8.38656 1.42377C8.83779 1.0424 9.40952 0.832947 10.0003 0.832947C10.5172 0.832947 11.0194 0.993229 11.4391 1.28868L11.6141 1.42377L11.6182 1.42702L17.4474 6.42377L17.5492 6.5141C17.78 6.73186 17.9678 6.99206 18.1017 7.2807C18.2547 7.61037 18.3337 7.96953 18.3337 8.33295V15.8329ZM13.3337 16.6663H15.8337C16.0546 16.6663 16.2666 16.5791 16.4229 16.423C16.5791 16.2667 16.667 16.054 16.667 15.8329V8.33295C16.667 8.21181 16.6407 8.09209 16.5897 7.9822C16.5387 7.87225 16.4641 7.7748 16.3716 7.69655L16.3675 7.69248L10.5382 2.69574V2.69655C10.3878 2.56943 10.1973 2.49961 10.0003 2.49961C9.80339 2.49961 9.61281 2.56943 9.4624 2.69655L9.46159 2.69574L3.63314 7.69248L3.62907 7.69655C3.5365 7.7748 3.46199 7.87225 3.41097 7.9822C3.35999 8.09209 3.33366 8.21181 3.33366 8.33295V15.8329C3.33366 16.054 3.42152 16.2667 3.5778 16.423C3.73406 16.5791 3.94608 16.6663 4.16699 16.6663H6.66699V10.8329C6.6671 10.3911 6.84281 9.96703 7.15527 9.65456C7.46781 9.34213 7.89172 9.16628 8.33366 9.16628H11.667C12.1089 9.16628 12.5328 9.34213 12.8454 9.65456C13.1578 9.96703 13.3336 10.3911 13.3337 10.8329V16.6663Z" fill="#767676"/>
</svg>
