<svg width="24" height="24" viewBox="0 0 24 24" fill="none" xmlns="http://www.w3.org/2000/svg">
<path d="M3.2793 2.01313C3.57719 1.96985 3.88183 2.01684 4.15235 2.14888L4.15137 2.14985L22.1406 10.644L22.2354 10.6928C22.4203 10.7969 22.5811 10.939 22.707 11.1098L22.7666 11.1977L22.8203 11.2895C22.9376 11.5075 23 11.7518 23 12.0004C22.9999 12.2844 22.9185 12.5623 22.7666 12.8022C22.6336 13.0123 22.4511 13.1857 22.2354 13.3071L22.1406 13.3559L4.14844 21.851L4.14942 21.852C3.87907 21.983 3.57555 22.0295 3.27832 21.9858C2.98104 21.9421 2.70363 21.8102 2.48242 21.6069C2.26118 21.4035 2.1066 21.1378 2.03809 20.8452C1.96963 20.5527 1.99079 20.2466 2.09864 19.9663L4.93653 12.3491C5.02036 12.124 5.02036 11.8759 4.93653 11.6508L2.09766 4.03559L2.06153 3.92915C1.98564 3.67828 1.97622 3.41123 2.03614 3.15473L2.06641 3.04536C2.14512 2.79554 2.2885 2.57006 2.48242 2.39204C2.70407 2.18864 2.98161 2.05646 3.2793 2.01313ZM6.81055 13.0473L4.39746 19.5219L18.209 13.0004H6.82617C6.82072 13.0158 6.81626 13.032 6.81055 13.0473ZM6.81055 10.9526C6.81636 10.9682 6.82063 10.9848 6.82617 11.0004H18.2109L4.39649 4.477L6.81055 10.9526Z" fill="#F7F8F8"/>
</svg>
