<svg width="16" height="16" viewBox="0 0 16 16" fill="none" xmlns="http://www.w3.org/2000/svg">
<path d="M9.06874 4.27277L9.06975 3.04311C9.06967 2.84065 9.06674 2.63551 9.07347 2.4356C9.08421 2.20207 9.25566 2.02012 9.48984 2.00156C9.71779 1.98349 9.85077 2.12525 10.018 2.25759L10.3976 2.55848L11.8458 3.70496L14.0872 5.47954L14.8046 6.04701C14.933 6.14858 15.0655 6.25075 15.1903 6.35643C15.2649 6.41953 15.3008 6.51773 15.3337 6.60742V6.77017C15.2966 6.85541 15.264 6.9551 15.1906 7.01674C15.003 7.17447 14.8032 7.32844 14.6109 7.48029L13.5124 8.34976L10.7535 10.5334L10.1517 11.01C10.0398 11.0986 9.81726 11.2951 9.69874 11.3442C9.40462 11.466 9.07247 11.2437 9.07154 10.9232C9.07089 10.6759 9.06932 10.4404 9.06939 10.1996L9.06996 8.82883C7.31241 8.58876 5.53184 9.06248 4.12764 10.1436C3.20354 10.8512 2.48476 11.7912 2.04504 12.8673C1.98252 13.0206 1.92576 13.1762 1.87487 13.3337C1.83909 13.4437 1.77032 13.7206 1.71202 13.8033C1.61584 13.9398 1.44428 14.018 1.27468 13.9965C1.1551 13.982 1.04646 13.92 0.973377 13.8245C0.94323 13.7848 0.91942 13.7406 0.902793 13.6937C0.874151 13.6132 0.847163 13.4665 0.830248 13.3801C0.777444 13.1107 0.736921 12.839 0.708802 12.5658C0.700338 12.4795 0.68904 12.238 0.666992 12.1767V11.3228C0.688013 11.2679 0.711919 10.9207 0.722216 10.8357C0.748169 10.629 0.782848 10.4235 0.826162 10.2197C1.11819 8.85948 1.81343 7.61816 2.82162 6.65694C4.36753 5.1958 6.40486 4.42324 8.51595 4.29186C8.69599 4.28066 8.88935 4.2679 9.06874 4.27277Z" fill="#F7F8F8"/>
</svg>
