<svg width="24" height="24" viewBox="0 0 24 24" fill="none" xmlns="http://www.w3.org/2000/svg">
<path d="M10.0879 3.01073C10.3373 2.9802 10.5904 3.00524 10.8291 3.08397L10.9473 3.12791L11.0615 3.17967C11.2861 3.29268 11.4828 3.45433 11.6377 3.65233L11.7119 3.75487L11.7783 3.86229C11.9228 4.1172 11.9995 4.40575 12 4.70018V19.2969L11.9951 19.4228C11.9738 19.7159 11.8777 19.9995 11.7139 20.2451C11.5266 20.5258 11.2599 20.7447 10.9482 20.874C10.6364 21.0032 10.2929 21.0366 9.96191 20.9707C9.6309 20.9047 9.32634 20.7428 9.08789 20.5039L5.7041 17.1181C5.66679 17.0806 5.62214 17.0505 5.57324 17.0303C5.52435 17.01 5.47186 16.9998 5.41895 17H3C2.46957 17 1.96101 16.7891 1.58594 16.414C1.21087 16.039 1 15.5304 1 15V8.99998C1.00001 8.46956 1.21087 7.96099 1.58594 7.58592C1.96101 7.21086 2.46957 6.99998 3 6.99998H5.41895C5.47187 7.00014 5.52435 6.98996 5.57324 6.96971C5.62214 6.94946 5.66679 6.91936 5.7041 6.88182L9.09082 3.49608C9.32922 3.25823 9.63258 3.09584 9.96289 3.03026L10.0879 3.01073ZM21 12C21 10.9494 20.7927 9.90906 20.3906 8.93846C19.9886 7.96794 19.4 7.08557 18.6572 6.34276C18.2667 5.95223 18.2667 5.31922 18.6572 4.9287C19.0478 4.53845 19.6809 4.53828 20.0713 4.9287C20.9999 5.85725 21.7367 6.95962 22.2393 8.17284C22.7418 9.38609 23 10.6868 23 12C23 13.3132 22.7418 14.6139 22.2393 15.8271C21.7367 17.0404 20.9999 18.1427 20.0713 19.0713C19.6808 19.4617 19.0478 19.4616 18.6572 19.0713C18.2667 18.6807 18.2667 18.0477 18.6572 17.6572C19.4001 16.9144 19.9886 16.032 20.3906 15.0615C20.7927 14.0909 21 13.0506 21 12ZM16 12C16 11.1345 15.7195 10.292 15.2002 9.59959C14.869 9.15778 14.9586 8.53151 15.4004 8.20018C15.8422 7.86896 16.4685 7.9586 16.7998 8.40037C17.5787 9.43892 18 10.7018 18 12C18 13.2981 17.5787 14.5611 16.7998 15.5996C16.4685 16.0414 15.8422 16.131 15.4004 15.7998C14.9586 15.4685 14.8689 14.8422 15.2002 14.4004C15.7195 13.708 16 12.8655 16 12ZM3 15H5.41602C5.73258 14.9994 6.04639 15.0614 6.33887 15.1826C6.63129 15.3038 6.8967 15.4818 7.12012 15.706L10 18.5859V5.41405L7.12012 8.29393C6.89671 8.51815 6.6313 8.6962 6.33887 8.81737C6.04639 8.93852 5.73258 8.99955 5.41602 8.99901L3 8.99998V15Z" fill="white"/>
</svg>
